<?xml version="1.0" encoding="utf-8" standalone="no"?>
<!DOCTYPE svg PUBLIC "-//W3C//DTD SVG 1.1//EN"
  "http://www.w3.org/Graphics/SVG/1.1/DTD/svg11.dtd">
<svg xmlns:xlink="http://www.w3.org/1999/xlink" width="576pt" height="190.8pt" viewBox="0 0 576 190.8" xmlns="http://www.w3.org/2000/svg" version="1.1">
 <metadata>
  <rdf:RDF xmlns:dc="http://purl.org/dc/elements/1.1/" xmlns:cc="http://creativecommons.org/ns#" xmlns:rdf="http://www.w3.org/1999/02/22-rdf-syntax-ns#">
   <cc:Work>
    <dc:type rdf:resource="http://purl.org/dc/dcmitype/StillImage"/>
    <dc:date>2026-09-16T13:43:21.007042</dc:date>
    <dc:format>image/svg+xml</dc:format>
    <dc:creator>
     <cc:Agent>
      <dc:title>Matplotlib v3.11.2, https://matplotlib.org/</dc:title>
     </cc:Agent>
    </dc:creator>
   </cc:Work>
  </rdf:RDF>
 </metadata>
 <defs>
  <style type="text/css">*{stroke-linejoin: round; stroke-linecap: butt}</style>
 </defs>
 <g id="figure_1">
  <g id="patch_1">
   <path d="M 0 190.8 
L 576 190.8 
L 576 0 
L 0 0 
z
" style="fill: #ffffff"/>
  </g>
  <g id="axes_1">
   <g id="patch_2">
    <path d="M 10.27584 133.132608 
L 110.75328 133.132608 
Q 114.14016 133.132608 114.14016 132.0336 
L 114.14016 44.11296 
Q 114.14016 43.013952 110.75328 43.013952 
L 10.27584 43.013952 
Q 6.88896 43.013952 6.88896 44.11296 
L 6.88896 132.0336 
Q 6.88896 133.132608 10.27584 133.132608 
z
" clip-path="url(#p34434eec56)" style="fill: #eef4f5; stroke: #b8cdcf; stroke-linejoin: miter"/>
   </g>
   <g id="patch_3">
    <path d="M 123.17184 133.132608 
L 223.64928 133.132608 
Q 227.03616 133.132608 227.03616 132.0336 
L 227.03616 44.11296 
Q 227.03616 43.013952 223.64928 43.013952 
L 123.17184 43.013952 
Q 119.78496 43.013952 119.78496 44.11296 
L 119.78496 132.0336 
Q 119.78496 133.132608 123.17184 133.132608 
z
" clip-path="url(#p34434eec56)" style="fill: #eef4f5; stroke: #b8cdcf; stroke-linejoin: miter"/>
   </g>
   <g id="patch_4">
    <path d="M 236.06784 133.132608 
L 336.54528 133.132608 
Q 339.93216 133.132608 339.93216 132.0336 
L 339.93216 44.11296 
Q 339.93216 43.013952 336.54528 43.013952 
L 236.06784 43.013952 
Q 232.68096 43.013952 232.68096 44.11296 
L 232.68096 132.0336 
Q 232.68096 133.132608 236.06784 133.132608 
z
" clip-path="url(#p34434eec56)" style="fill: #eef4f5; stroke: #b8cdcf; stroke-linejoin: miter"/>
   </g>
   <g id="patch_5">
    <path d="M 348.96384 133.132608 
L 449.44128 133.132608 
Q 452.82816 133.132608 452.82816 132.0336 
L 452.82816 44.11296 
Q 452.82816 43.013952 449.44128 43.013952 
L 348.96384 43.013952 
Q 345.57696 43.013952 345.57696 44.11296 
L 345.57696 132.0336 
Q 345.57696 133.132608 348.96384 133.132608 
z
" clip-path="url(#p34434eec56)" style="fill: #eef4f5; stroke: #b8cdcf; stroke-linejoin: miter"/>
   </g>
   <g id="patch_6">
    <path d="M 461.85984 133.132608 
L 562.33728 133.132608 
Q 565.72416 133.132608 565.72416 132.0336 
L 565.72416 44.11296 
Q 565.72416 43.013952 562.33728 43.013952 
L 461.85984 43.013952 
Q 458.47296 43.013952 458.47296 44.11296 
L 458.47296 132.0336 
Q 458.47296 133.132608 461.85984 133.132608 
z
" clip-path="url(#p34434eec56)" style="fill: #dfeeee; stroke: #b8cdcf; stroke-linejoin: miter"/>
   </g>
   <g id="text_1">
    <text style="font-weight: 700; font-size: 8px; font-family: 'DejaVu Sans'; text-anchor: middle; fill: #157f82" x="60.51456" y="64.26144" transform="rotate(-0 60.51456 64.26144)">CLINICAL NEED</text>
   </g>
   <g id="text_2">
    <text style="font-size: 9px; font-family: 'DejaVu Sans'; fill: #243b49" transform="translate(24.168623 101.195077)">Symptoms, risk,</text>
    <text style="font-size: 9px; font-family: 'DejaVu Sans'; fill: #243b49" transform="translate(17.465029 115.145077)">benefit, preference</text>
   </g>
   <g id="patch_7">
    <path d="M 114.447482 88.07328 
Q 117.245689 88.07328 118.702255 88.07328 
" style="fill: none; stroke: #526674; stroke-width: 1.2; stroke-linecap: round"/>
    <path d="M 114.702255 86.07328 
L 118.702255 88.07328 
L 114.702255 90.07328 
" style="fill: none; stroke: #526674; stroke-width: 1.2; stroke-linecap: round"/>
   </g>
   <g id="text_3">
    <text style="font-weight: 700; font-size: 8px; font-family: 'DejaVu Sans'; text-anchor: middle; fill: #157f82" x="173.41056" y="64.26144" transform="rotate(-0 173.41056 64.26144)">RECOGNITION</text>
   </g>
   <g id="text_4">
    <text style="font-size: 9px; font-family: 'DejaVu Sans'; fill: #243b49" transform="translate(150.106888 101.195077)">Diagnosis,</text>
    <text style="font-size: 9px; font-family: 'DejaVu Sans'; fill: #243b49" transform="translate(143.576263 115.557812)">referral, offer</text>
   </g>
   <g id="patch_8">
    <path d="M 227.343482 88.07328 
Q 230.141689 88.07328 231.598255 88.07328 
" style="fill: none; stroke: #526674; stroke-width: 1.2; stroke-linecap: round"/>
    <path d="M 227.598255 86.07328 
L 231.598255 88.07328 
L 227.598255 90.07328 
" style="fill: none; stroke: #526674; stroke-width: 1.2; stroke-linecap: round"/>
   </g>
   <g id="text_5">
    <text style="font-weight: 700; font-size: 8px; font-family: 'DejaVu Sans'; text-anchor: middle; fill: #157f82" x="286.30656" y="64.26144" transform="rotate(-0 286.30656 64.26144)">BENEFIT RULES</text>
   </g>
   <g id="text_6">
    <text style="font-size: 9px; font-family: 'DejaVu Sans'; fill: #243b49" transform="translate(247.963044 101.195077)">Eligibility, listing,</text>
    <text style="font-size: 9px; font-family: 'DejaVu Sans'; fill: #243b49" transform="translate(244.498044 115.145077)">prior authorization</text>
   </g>
   <g id="patch_9">
    <path d="M 340.239482 88.07328 
Q 343.037689 88.07328 344.494255 88.07328 
" style="fill: none; stroke: #526674; stroke-width: 1.2; stroke-linecap: round"/>
    <path d="M 340.494255 86.07328 
L 344.494255 88.07328 
L 340.494255 90.07328 
" style="fill: none; stroke: #526674; stroke-width: 1.2; stroke-linecap: round"/>
   </g>
   <g id="text_7">
    <text style="font-weight: 700; font-size: 8px; font-family: 'DejaVu Sans'; text-anchor: middle; fill: #157f82" x="399.20256" y="64.26144" transform="rotate(-0 399.20256 64.26144)">PRACTICAL ACCESS</text>
   </g>
   <g id="text_8">
    <text style="font-size: 9px; font-family: 'DejaVu Sans'; fill: #243b49" transform="translate(364.115919 101.115624)">Cost, transport,</text>
    <text style="font-size: 9px; font-family: 'DejaVu Sans'; fill: #243b49" transform="translate(362.694904 115.145077)">time, caregiving</text>
   </g>
   <g id="patch_10">
    <path d="M 453.135482 88.07328 
Q 455.933689 88.07328 457.390255 88.07328 
" style="fill: none; stroke: #526674; stroke-width: 1.2; stroke-linecap: round"/>
    <path d="M 453.390255 86.07328 
L 457.390255 88.07328 
L 453.390255 90.07328 
" style="fill: none; stroke: #526674; stroke-width: 1.2; stroke-linecap: round"/>
   </g>
   <g id="text_9">
    <text style="font-weight: 700; font-size: 8px; font-family: 'DejaVu Sans'; text-anchor: middle; fill: #157f82" x="512.09856" y="64.26144" transform="rotate(-0 512.09856 64.26144)">COMPLETED CARE</text>
   </g>
   <g id="text_10">
    <text style="font-size: 9px; font-family: 'DejaVu Sans'; fill: #243b49" transform="translate(468.307935 101.607812)">Suitable treatment,</text>
    <text style="font-size: 9px; font-family: 'DejaVu Sans'; fill: #243b49" transform="translate(472.561138 115.145077)">patient outcomes</text>
   </g>
   <g id="text_11">
    <text style="font-weight: 700; font-size: 10px; font-family: 'DejaVu Sans'; text-anchor: middle; fill: #15384a" x="288" y="166.83552" transform="rotate(-0 288 166.83552)">Include people with unmet need and those who never generate a paid claim.</text>
   </g>
  </g>
 </g>
 <defs>
  <clipPath id="p34434eec56">
   <rect x="5.76" y="3.816" width="564.48" height="183.168"/>
  </clipPath>
 </defs>
</svg>
